<svg width="70" height="70" viewBox="0 0 70 70" fill="none" xmlns="http://www.w3.org/2000/svg">
<path d="M68.8334 67.6666H64.1668V35C64.1647 33.0679 62.5989 31.5021 60.6668 31.5V24.5C60.6647 22.5679 59.0989 21.0021 57.1668 21V14C57.1647 12.0679 55.5989 10.5021 53.6668 10.5V3.5C53.6647 1.56789 52.0989 0.00205078 50.1668 0H19.8334C17.9013 0.00205078 16.3354 1.56789 16.3334 3.5V10.5C14.4013 10.5021 12.8354 12.0679 12.8334 14V21C10.9013 21.0021 9.33543 22.5679 9.33338 24.5V31.5C7.40127 31.5021 5.83543 33.0679 5.83338 35V67.6666H1.16662C0.522266 67.6666 0 68.1889 0 68.8332C0 69.4776 0.522266 70 1.16662 70H68.8332C69.4776 70 69.9999 69.4777 69.9999 68.8334C69.9999 68.189 69.4777 67.6666 68.8334 67.6666ZM18.6666 3.5C18.667 2.85592 19.1892 2.33379 19.8332 2.33338H50.1666C50.8108 2.33379 51.3328 2.85592 51.3332 3.5V10.5H33.7154C33.161 7.78408 30.772 5.83338 28 5.83338C25.228 5.83338 22.839 7.78408 22.2846 10.5H18.6668V3.5H18.6666ZM31.2851 10.5H24.7151C25.2025 9.10273 26.5203 8.16662 28.0001 8.16662C29.48 8.16662 30.7977 9.10273 31.2851 10.5ZM15.1666 14C15.167 13.3558 15.6892 12.8338 16.3332 12.8334H53.6666C54.3108 12.8338 54.8328 13.3559 54.8332 14V21H30.2154C29.661 18.2841 27.272 16.3334 24.5 16.3334C21.728 16.3334 19.339 18.2841 18.7846 21H15.1668V14H15.1666ZM27.7851 21H21.2151C21.7025 19.6027 23.0203 18.6666 24.5001 18.6666C25.98 18.6666 27.2977 19.6027 27.7851 21ZM11.6666 24.5C11.667 23.8558 12.1892 23.3338 12.8332 23.3334H57.1666C57.8107 23.3338 58.3328 23.8559 58.3332 24.5V31.5H26.7154C26.161 28.7841 23.772 26.8334 21 26.8334C18.228 26.8334 15.839 28.7841 15.2846 31.5H11.6666V24.5ZM24.2851 31.5H17.7151C18.2025 30.1027 19.5203 29.1666 21.0001 29.1666C22.48 29.1666 23.7977 30.1027 24.2851 31.5ZM61.8334 67.6666H8.16662V35C8.16703 34.3559 8.68916 33.8338 9.33324 33.8334H60.6666C61.3108 33.8338 61.8328 34.3559 61.8332 35V67.6666H61.8334Z" fill="#2D2A1F"/>
<path d="M19.8333 52.5C23.6993 52.5 26.8333 49.366 26.8333 45.5C26.8333 41.634 23.6993 38.5 19.8333 38.5C15.9673 38.5 12.8333 41.634 12.8333 45.5C12.8375 49.3642 15.9689 52.4958 19.8333 52.5ZM19.8333 40.8334C22.4105 40.8334 24.4999 42.9227 24.4999 45.5C24.4999 48.0773 22.4105 50.1666 19.8333 50.1666C17.256 50.1666 15.1666 48.0773 15.1666 45.5C15.1691 42.9237 17.2569 40.8358 19.8333 40.8334Z" fill="#2D2A1F"/>
<path d="M56.0001 38.5H31.5001C30.8558 38.5 30.3335 39.0223 30.3335 39.6666C30.3335 40.311 30.8558 40.8332 31.5001 40.8332H56.0001C56.6445 40.8332 57.1667 40.311 57.1667 39.6666C57.1667 39.0223 56.6445 38.5 56.0001 38.5Z" fill="#2D2A1F"/>
<path d="M56.0001 44.3335H31.5001C30.8558 44.3335 30.3335 44.8559 30.3335 45.5001C30.3335 46.1445 30.8558 46.6667 31.5001 46.6667H56.0001C56.6445 46.6667 57.1667 46.1443 57.1667 45.5001C57.1667 44.8558 56.6445 44.3335 56.0001 44.3335Z" fill="#2D2A1F"/>
<path d="M56.0001 50.1665H31.5001C30.8558 50.1665 30.3335 50.6888 30.3335 51.3331C30.3335 51.9775 30.8558 52.4999 31.5001 52.4999H56.0001C56.6445 52.4999 57.1667 51.9776 57.1667 51.3333C57.1667 50.6889 56.6445 50.1665 56.0001 50.1665Z" fill="#2D2A1F"/>
<path d="M55.9999 56H13.9999C13.3555 56 12.8333 56.5223 12.8333 57.1666C12.8333 57.811 13.3555 58.3332 13.9999 58.3332H55.9999C56.6442 58.3332 57.1665 57.811 57.1665 57.1666C57.1665 56.5223 56.6442 56 55.9999 56Z" fill="#2D2A1F"/>
<path d="M55.9999 61.8335H13.9999C13.3555 61.8335 12.8333 62.3559 12.8333 63.0001C12.8333 63.6443 13.3555 64.1667 13.9999 64.1667H55.9999C56.6442 64.1667 57.1665 63.6445 57.1665 63.0001C57.1665 62.3558 56.6442 61.8335 55.9999 61.8335Z" fill="#2D2A1F"/>
</svg>
