<svg width="70" height="70" viewBox="0 0 70 70" fill="none" xmlns="http://www.w3.org/2000/svg">
<g clip-path="url(#clip0)">
<path d="M47.8333 48.4167C47.8333 49.061 48.3557 49.5833 49 49.5833C49.6443 49.5833 50.1667 49.061 50.1667 48.4167C50.054 45.8015 48.0919 43.6387 45.5 43.2728V43.1667C45.5 42.5223 44.9777 42 44.3333 42C43.689 42 43.1667 42.5223 43.1667 43.1667V43.2728C40.5196 43.5315 38.501 45.757 38.501 48.4167C38.501 51.0764 40.5196 53.3018 43.1667 53.5605V59.3203C41.8684 59.0258 40.9187 57.9119 40.8333 56.5833C40.8333 55.939 40.311 55.4167 39.6667 55.4167C39.0223 55.4167 38.5 55.939 38.5 56.5833C38.6126 59.1985 40.5747 61.3613 43.1667 61.7272V61.8333C43.1667 62.4777 43.689 63 44.3333 63C44.9777 63 45.5 62.4777 45.5 61.8333V61.7272C48.1471 61.4685 50.1657 59.243 50.1657 56.5833C50.1657 53.9236 48.1471 51.6982 45.5 51.4395V45.6797C46.7983 45.9742 47.7479 47.0881 47.8333 48.4167ZM40.8333 48.4167C40.9187 47.0881 41.8684 45.9742 43.1667 45.6797V51.1537C41.8684 50.8591 40.9187 49.7452 40.8333 48.4167ZM47.8333 56.5833C47.7479 57.9119 46.7983 59.0258 45.5 59.3203V53.8463C46.7983 54.1409 47.7479 55.2548 47.8333 56.5833Z" fill="#2D2A1F"/>
<path d="M10.4999 18.0833C9.85559 18.0833 9.33325 18.6057 9.33325 19.25V63C9.33711 66.8644 12.4689 69.9961 16.3333 70H53.6666C57.531 69.9961 60.6627 66.8644 60.6666 63V17.5C60.6665 17.1906 60.5436 16.8939 60.3248 16.6752L43.9914 0.341833C43.7727 0.123026 43.476 6.608e-05 43.1666 0H16.3333C12.4689 0.00385861 9.33711 3.13561 9.33325 7V14C9.33325 14.6443 9.85559 15.1667 10.4999 15.1667C11.1443 15.1667 11.6666 14.6443 11.6666 14V7C11.6666 4.42267 13.7559 2.33333 16.3333 2.33333H41.9999V11.6667C42.0038 15.5311 45.1355 18.6628 48.9999 18.6667H58.3333V63C58.3333 65.5773 56.2439 67.6667 53.6666 67.6667H16.3333C13.7559 67.6667 11.6666 65.5773 11.6666 63V19.25C11.6666 18.6057 11.1443 18.0833 10.4999 18.0833ZM44.3333 11.6667V3.983L56.6836 16.3333H48.9999C46.4226 16.3333 44.3333 14.244 44.3333 11.6667Z" fill="#2D2A1F"/>
<path d="M17.5 61.8333C17.5 62.4777 18.0223 63 18.6667 63H23.3333C23.9777 63 24.5 62.4777 24.5 61.8333C24.5 61.189 23.9777 60.6667 23.3333 60.6667H19.8333V57.1667C19.8333 56.5223 19.311 56 18.6667 56C18.0223 56 17.5 56.5223 17.5 57.1667V61.8333Z" fill="#2D2A1F"/>
<path d="M18.6667 25.6668H50.1667C50.811 25.6668 51.3333 25.1445 51.3333 24.5002C51.3333 23.8558 50.811 23.3335 50.1667 23.3335H18.6667C18.0223 23.3335 17.5 23.8558 17.5 24.5002C17.5 25.1445 18.0223 25.6668 18.6667 25.6668Z" fill="#2D2A1F"/>
<path d="M18.6667 32.6668H50.1667C50.811 32.6668 51.3333 32.1445 51.3333 31.5002C51.3333 30.8558 50.811 30.3335 50.1667 30.3335H18.6667C18.0223 30.3335 17.5 30.8558 17.5 31.5002C17.5 32.1445 18.0223 32.6668 18.6667 32.6668Z" fill="#2D2A1F"/>
<path d="M18.6667 39.6668H50.1667C50.811 39.6668 51.3333 39.1445 51.3333 38.5002C51.3333 37.8558 50.811 37.3335 50.1667 37.3335H18.6667C18.0223 37.3335 17.5 37.8558 17.5 38.5002C17.5 39.1445 18.0223 39.6668 18.6667 39.6668Z" fill="#2D2A1F"/>
<path d="M18.6667 46.6668H35C35.6443 46.6668 36.1667 46.1445 36.1667 45.5002C36.1667 44.8558 35.6443 44.3335 35 44.3335H18.6667C18.0223 44.3335 17.5 44.8558 17.5 45.5002C17.5 46.1445 18.0223 46.6668 18.6667 46.6668Z" fill="#2D2A1F"/>
</g>
<defs>
<clipPath id="clip0">
<rect width="70" height="70" fill="white"/>
</clipPath>
</defs>
</svg>
