<svg width="16" height="16" viewBox="0 0 16 16" fill="none" xmlns="http://www.w3.org/2000/svg">
<path d="M14.3125 4.53125H1.6875C0.912094 4.53125 0.28125 5.16209 0.28125 5.9375V11.5625C0.28125 12.3379 0.912094 12.9688 1.6875 12.9688H14.3125C15.0879 12.9688 15.7188 12.3379 15.7188 11.5625V5.9375C15.7188 5.16209 15.0879 4.53125 14.3125 4.53125ZM3.99191 9.47931C3.87206 9.47931 3.66731 9.48016 3.47566 9.48112V10.5623C3.47566 10.8212 3.26578 11.031 3.00691 11.031C2.74803 11.031 2.53816 10.8212 2.53816 10.5623L2.53125 7.0015C2.53084 6.87694 2.58006 6.75731 2.668 6.66906C2.75594 6.58081 2.87544 6.53125 3 6.53125H3.99191C4.81553 6.53125 5.48562 7.1925 5.48562 8.00528C5.48562 8.81806 4.81553 9.47931 3.99191 9.47931ZM8.01591 10.918C7.73672 10.9229 7.03838 10.9255 7.00878 10.9257C7.00819 10.9257 7.00759 10.9257 7.007 10.9257C6.88331 10.9257 6.76459 10.8768 6.67678 10.7896C6.58853 10.702 6.53872 10.5829 6.53825 10.4586C6.53822 10.4461 6.53125 7.00091 6.53125 7.00091C6.53103 6.87644 6.58028 6.75697 6.66822 6.66888C6.75616 6.58078 6.87553 6.53125 7 6.53125H7.97906C9.09444 6.53125 9.84381 7.41425 9.84381 8.72847C9.84381 9.97866 9.07506 10.8995 8.01591 10.918ZM12.8194 8.22969C13.0782 8.22969 13.2881 8.43956 13.2881 8.69844C13.2881 8.95731 13.0782 9.16719 12.8194 9.16719H11.9688V10.5C11.9688 10.7589 11.7589 10.9688 11.5 10.9688C11.2411 10.9688 11.0312 10.7589 11.0312 10.5V6.96381C11.0312 6.70494 11.2411 6.49506 11.5 6.49506H12.9332C13.1921 6.49506 13.402 6.70494 13.402 6.96381C13.402 7.22269 13.1921 7.43256 12.9332 7.43256H11.9688V8.22969H12.8194Z" fill="#CB2C2C"/>
<path d="M7.97919 7.46875H7.46973C7.47045 7.89187 7.47301 9.57856 7.47432 9.98572C7.66938 9.98447 7.87825 9.98275 7.99966 9.98063C8.62605 9.96969 8.90645 9.34384 8.90645 8.72847C8.90642 8.43294 8.83958 7.46875 7.97919 7.46875Z" fill="#CB2C2C"/>
<path d="M3.99196 7.46875H3.47021C3.47078 7.67734 3.47131 7.89925 3.47131 8.00528C3.47131 8.12919 3.47218 8.34409 3.47318 8.54366C3.66556 8.54269 3.87106 8.54181 3.992 8.54181C4.2935 8.54181 4.54821 8.29613 4.54821 8.00528C4.54821 7.71444 4.29346 7.46875 3.99196 7.46875Z" fill="#CB2C2C"/>
<path d="M13.8267 3.59375C13.7181 3.29594 13.5493 3.02069 13.3259 2.785L11.3788 0.731219C10.9383 0.266531 10.3183 0 9.67797 0H3.4375C2.66209 0 2.03125 0.630844 2.03125 1.40625V3.59375H13.8267Z" fill="#CB2C2C"/>
<path d="M2.03125 13.9062V14.5938C2.03125 15.3692 2.66209 16 3.4375 16H12.5625C13.3379 16 13.9688 15.3692 13.9688 14.5938V13.9062H2.03125Z" fill="#CB2C2C"/>
</svg>
