<svg width="14" height="14" viewBox="0 0 14 14" fill="none" xmlns="http://www.w3.org/2000/svg">
<path d="M13.6685 11.9746L10.4498 8.7557C10.9966 7.88505 11.314 6.856 11.314 5.75163C11.314 2.62723 8.78119 0.0947266 5.6569 0.0947266C2.53262 0.0947266 0 2.62723 0 5.75163C0 8.87615 2.5325 11.4084 5.6569 11.4084C6.85874 11.4084 7.97195 11.0327 8.88797 10.3942L12.0684 13.5748C12.2894 13.7956 12.5791 13.9056 12.8684 13.9056C13.1581 13.9056 13.4475 13.7956 13.6688 13.5748C14.1104 13.1327 14.1104 12.4166 13.6685 11.9746ZM5.6569 9.57566C3.54517 9.57566 1.83311 7.86372 1.83311 5.75187C1.83311 3.64002 3.54517 1.92795 5.6569 1.92795C7.76875 1.92795 9.4807 3.64002 9.4807 5.75187C9.4807 7.86372 7.76875 9.57566 5.6569 9.57566Z" fill="white"/>
</svg>
