<svg width="24" height="24" viewBox="0 0 24 24" fill="none" xmlns="http://www.w3.org/2000/svg">
<path d="M23.9487 18.5956C23.8809 18.3911 23.449 18.0898 22.6534 17.6924C22.4379 17.5671 22.1308 17.3969 21.7334 17.181C21.3357 16.965 20.9746 16.7661 20.651 16.5842C20.3267 16.4024 20.0229 16.2263 19.739 16.0561C19.6936 16.022 19.5516 15.9227 19.313 15.7576C19.0741 15.5929 18.8727 15.4707 18.7076 15.391C18.5429 15.3118 18.3808 15.2719 18.2217 15.2719C17.9945 15.2719 17.7107 15.4339 17.3699 15.7576C17.0291 16.0816 16.7165 16.4336 16.4326 16.8147C16.1486 17.1955 15.8474 17.5475 15.5295 17.8714C15.2112 18.1954 14.9497 18.3572 14.7454 18.3572C14.6428 18.3572 14.5149 18.3286 14.3617 18.2722C14.2085 18.2154 14.0919 18.1668 14.0119 18.1276C13.9326 18.0875 13.7966 18.0082 13.6033 17.8885C13.4096 17.7692 13.3019 17.7038 13.2792 17.6924C11.7225 16.8286 10.3874 15.8399 9.27363 14.7266C8.16025 13.6127 7.17147 12.2777 6.30788 10.7208C6.29654 10.6981 6.23104 10.5901 6.11182 10.397C5.99241 10.2038 5.91283 10.0676 5.87307 9.98781C5.83331 9.90835 5.78501 9.79181 5.72829 9.63844C5.67158 9.48506 5.6431 9.3573 5.6431 9.25491C5.6431 9.05049 5.80507 8.789 6.12895 8.47079C6.45278 8.15276 6.80514 7.8515 7.18567 7.56762C7.56651 7.28374 7.91851 6.97114 8.24246 6.63036C8.56628 6.2894 8.72819 6.00546 8.72819 5.77824C8.72819 5.61925 8.68843 5.45716 8.60897 5.29244C8.52944 5.12737 8.40729 4.92594 8.24246 4.68719C8.07756 4.44856 7.97816 4.30665 7.94401 4.26098C7.77374 3.97709 7.5978 3.67315 7.41577 3.34927C7.23373 3.02545 7.03505 2.66449 6.81905 2.26682C6.60322 1.86932 6.43289 1.5624 6.30776 1.34651C5.91026 0.551227 5.60919 0.119224 5.40459 0.0512838C5.32501 0.0171941 5.20561 0 5.04668 0C4.73969 0 4.33921 0.0567167 3.84494 0.170508C3.35049 0.284121 2.96141 0.403286 2.67729 0.52848C2.10911 0.766989 1.5069 1.46013 0.870479 2.60766C0.290953 3.6756 0.0012207 4.73262 0.0012207 5.77794C0.0012207 6.08451 0.0211014 6.38278 0.0608628 6.67281C0.100624 6.96254 0.171669 7.28929 0.274058 7.65299C0.376267 8.01658 0.458716 8.28667 0.521044 8.46255C0.583433 8.63855 0.699911 8.95384 0.870419 9.40852C1.04069 9.86309 1.14308 10.1414 1.17717 10.2436C1.57484 11.3573 2.04643 12.3515 2.5918 13.2266C3.48912 14.681 4.71366 16.1841 6.26471 17.7353C7.81583 19.2864 9.31864 20.5108 10.7732 21.4085C11.6481 21.9538 12.6427 22.4254 13.7562 22.8233C13.8585 22.8573 14.1368 22.9594 14.5912 23.1303C15.0458 23.3007 15.3612 23.4171 15.5372 23.4796C15.7132 23.5422 15.9834 23.6247 16.3467 23.7271C16.7107 23.8295 17.0372 23.9005 17.3269 23.9406C17.6168 23.9798 17.9152 24.0001 18.2218 24.0001C19.267 24.0001 20.3241 23.7101 21.3923 23.1307C22.5397 22.4945 23.2326 21.8922 23.4712 21.3236C23.5967 21.0397 23.7156 20.6506 23.8292 20.1561C23.9432 19.6619 23.9998 19.2615 23.9998 18.9545C24.0001 18.795 23.983 18.6759 23.9487 18.5956Z" fill="black"/>
</svg>
