<svg width="20" height="20" viewBox="0 0 20 20" fill="none" xmlns="http://www.w3.org/2000/svg">
<path d="M14.6154 7.11557H20V4.61557C20 3.02498 18.706 1.73096 17.1154 1.73096H2.88461C1.29402 1.73096 0 3.02498 0 4.61557V15.3848C0 16.9754 1.29402 18.2694 2.88461 18.2694H17.1154C18.706 18.2694 20 16.9754 20 15.3848V12.8848H14.6154C13.0248 12.8848 11.7308 11.5908 11.7308 10.0002C11.7308 8.4096 13.0248 7.11557 14.6154 7.11557Z" fill="#2D2A1F"/>
<path d="M14.6151 8.26904C13.6607 8.26904 12.8843 9.04545 12.8843 9.99982C12.8843 10.9542 13.6607 11.7306 14.6151 11.7306H19.9997V8.26908H14.6151V8.26904ZM15.3843 10.5767H14.6151C14.2964 10.5767 14.0381 10.3184 14.0381 9.99982C14.0381 9.68123 14.2965 9.42291 14.6151 9.42291H15.3843C15.7029 9.42291 15.9612 9.68123 15.9612 9.99982C15.9612 10.3184 15.7029 10.5767 15.3843 10.5767Z" fill="#2D2A1F"/>
</svg>
