<svg width="24" height="24" viewBox="0 0 24 24" fill="none" xmlns="http://www.w3.org/2000/svg">
<path d="M21.54 11.5662C20.9531 11.3418 20.1547 11.2008 19.3045 11.162C20.8265 10.5189 21.6767 9.0789 21.2034 7.94673C20.7272 6.81025 19.0959 6.40744 17.5666 7.04617C17.1753 7.20873 16.7179 7.47344 16.2633 7.79424C17.0171 6.98863 17.6314 6.08088 17.9162 5.33425C18.6758 3.35907 17.686 1.13501 15.7109 0.375431C13.7357 -0.382706 11.5087 0.608483 10.752 2.58367C10.5996 2.97353 10.4888 3.46265 10.4197 3.99349C9.71482 2.69732 8.41577 2.00967 7.37136 2.44556C6.23487 2.9203 5.83207 4.55454 6.47224 6.08232C6.5154 6.18446 6.56719 6.29523 6.62185 6.40456C6.13273 6.05786 5.64505 5.77878 5.21491 5.6119C3.23829 4.85232 1.01423 5.84351 0.256091 7.8187C-0.503484 9.79676 0.487704 12.0194 2.46289 12.779C2.90022 12.9458 3.45695 13.0638 4.06404 13.1343C2.56791 13.786 1.7364 15.2073 2.20538 16.3308C2.68012 17.4673 4.31292 17.8716 5.84214 17.2314C5.86803 17.2199 5.89393 17.2069 5.92126 17.1954C5.5501 17.7061 5.25663 18.2154 5.08256 18.6628C4.32442 20.6409 5.31417 22.8649 7.28936 23.6245C9.26454 24.3812 11.4886 23.3914 12.2482 21.4177C12.4971 20.7732 12.6409 19.8755 12.6611 18.9304C12.7085 19.0757 12.7574 19.2123 12.8092 19.3346C13.448 20.8653 14.8937 21.7227 16.0302 21.2465C17.1667 20.7718 17.5695 19.1404 16.9308 17.6112C16.9279 17.6054 16.9265 17.5997 16.9222 17.5939C17.5595 18.1089 18.2198 18.5175 18.7866 18.7347C20.7618 19.4914 22.9887 18.5031 23.7483 16.5279C24.5021 14.5513 23.5138 12.3272 21.54 11.5662ZM17.7882 7.5727C18.9247 7.09796 20.1388 7.39863 20.4927 8.24164C20.8466 9.08753 20.2079 10.1622 19.07 10.6398C18.237 10.9879 16.4719 11.2915 15.449 11.0944C15.4044 10.9433 15.3555 10.7937 15.2879 10.6455C15.1714 10.3851 15.0247 10.1463 14.8578 9.92767C15.3872 9.04725 16.9222 7.93522 17.7882 7.5727ZM11.6684 2.93612C12.2338 1.46732 13.8882 0.729325 15.3584 1.29325C16.8272 1.85862 17.5638 3.51156 17.0013 4.9818C16.5323 6.20028 14.7499 8.38262 13.3156 8.77104C12.943 8.62575 12.5445 8.5495 12.1388 8.53512C11.0412 7.54393 11.1548 4.27401 11.6684 2.93612ZM7.66771 3.15766C8.51504 2.80521 9.58966 3.44251 10.0658 4.58043C10.1622 4.81204 10.2543 5.11415 10.3349 5.45222C10.3464 6.13123 10.4269 6.81456 10.5852 7.43603C10.5852 8.17691 10.4528 8.79118 10.0903 8.94224C9.2444 9.29613 7.47638 7.00014 7.0002 5.86221C6.52259 4.72429 6.82326 3.51156 7.66771 3.15766ZM2.81534 11.8597C1.3451 11.2972 0.608546 9.64139 1.17391 8.17115C1.73784 6.70235 3.39222 5.96435 4.86102 6.52972C6.2881 7.07638 9.0243 9.41841 8.6776 10.9016C8.65458 10.9678 8.63156 11.0339 8.61142 11.1016C7.96118 12.5042 4.264 12.4164 2.81534 11.8597ZM11.3318 21.0638C10.7679 22.5326 9.11205 23.2692 7.64181 22.7052C6.17301 22.1413 5.43502 20.4855 5.99894 19.0167C6.52834 17.6385 8.73946 15.0232 10.2241 15.167C10.4255 15.2864 10.6384 15.3828 10.8556 15.459C11.9576 16.4488 11.8468 19.7202 11.3318 21.0638ZM9.55801 13.1976C8.95237 11.8338 9.56521 10.2298 10.9304 9.62557C12.2957 9.01704 13.8982 9.63132 14.5053 10.998C15.0908 12.3172 14.5269 13.8536 13.2523 14.5024H13.2494C13.2422 14.5053 13.2365 14.5125 13.2279 14.5168C13.1948 14.5326 13.166 14.5556 13.1315 14.5714C11.7691 15.1785 10.1651 14.5614 9.55801 13.1976ZM15.7324 20.5387C14.888 20.8897 13.8148 20.2524 13.3372 19.1131C12.9962 18.2974 12.697 16.5898 12.8682 15.5598C13.0768 15.5108 13.2811 15.4432 13.4825 15.3555C13.7242 15.2476 13.9443 15.1167 14.1486 14.9656C15.0131 15.5454 16.0547 16.9969 16.4028 17.8313C16.879 18.9692 16.5783 20.1819 15.7324 20.5387ZM22.8276 16.174C22.2622 17.6428 20.6093 18.3808 19.139 17.8183C17.7206 17.2717 15.0002 14.9483 15.3196 13.4652C15.357 13.3745 15.3915 13.2839 15.4203 13.1918C16.1396 11.8453 19.7576 11.9374 21.1876 12.4855C22.6549 13.048 23.3929 14.7067 22.8276 16.174Z" fill="#030104"/>
</svg>
