<svg width="24" height="20" viewBox="0 0 24 20" fill="none" xmlns="http://www.w3.org/2000/svg">
<path d="M2.30353 6.38426C2.60712 6.59849 3.52228 7.23477 5.04903 8.29276C6.57583 9.35075 7.74547 10.1654 8.55799 10.7367C8.64725 10.7993 8.83691 10.9354 9.12704 11.1453C9.41722 11.3552 9.65834 11.5249 9.85019 11.6543C10.0422 11.7837 10.2743 11.9288 10.5468 12.0895C10.8191 12.25 11.0758 12.3708 11.3169 12.4507C11.558 12.5313 11.7812 12.5712 11.9865 12.5712H12H12.0135C12.2188 12.5712 12.4421 12.5312 12.6832 12.4507C12.9242 12.3708 13.1812 12.2499 13.4533 12.0895C13.7256 11.9287 13.9577 11.7837 14.1497 11.6543C14.3417 11.5249 14.5826 11.3552 14.8729 11.1453C15.163 10.9353 15.3528 10.7993 15.4421 10.7367C16.2634 10.1654 18.3529 8.71443 21.7099 6.38398C22.3616 5.92882 22.9062 5.3796 23.3436 4.73671C23.7814 4.0941 24 3.41997 24 2.71469C24 2.12532 23.7878 1.62081 23.3637 1.20121C22.9396 0.781509 22.4373 0.571777 21.8571 0.571777H2.14277C1.45531 0.571777 0.92627 0.803884 0.555734 1.2681C0.185245 1.73241 0 2.31277 0 3.00914C0 3.57162 0.245617 4.18116 0.736616 4.83738C1.22757 5.49364 1.75004 6.00931 2.30353 6.38426Z" fill="black"/>
<path d="M22.6605 7.81699C19.7323 9.79895 17.5088 11.3393 15.9911 12.4376C15.4822 12.8124 15.0693 13.1051 14.7523 13.3148C14.4352 13.5246 14.0136 13.7389 13.4867 13.9575C12.96 14.1765 12.4691 14.2856 12.0137 14.2856H12H11.9866C11.5312 14.2856 11.0401 14.1765 10.5134 13.9575C9.98669 13.7389 9.56474 13.5246 9.24777 13.3148C8.9309 13.1051 8.51791 12.8124 8.00904 12.4376C6.80362 11.5537 4.5849 10.0133 1.35281 7.81699C0.843756 7.47793 0.392864 7.08928 0 6.65186V17.2855C0 17.8751 0.209731 18.3794 0.629428 18.799C1.04903 19.2188 1.55359 19.4286 2.14291 19.4286H21.8572C22.4464 19.4286 22.9509 19.2188 23.3706 18.799C23.7904 18.3792 24 17.8752 24 17.2855V6.65186C23.616 7.08023 23.1697 7.46887 22.6605 7.81699Z" fill="black"/>
</svg>
