<svg width="20" height="20" viewBox="0 0 20 20" fill="none" xmlns="http://www.w3.org/2000/svg">
<g clip-path="url(#clip0)">
<path d="M13.2608 10.652H0.652174C0.292173 10.652 0 10.3598 0 9.99983C0 9.63983 0.292173 9.34766 0.652174 9.34766H13.2608C13.6208 9.34766 13.913 9.63983 13.913 9.99983C13.913 10.3598 13.6208 10.652 13.2608 10.652Z" fill="#99906E"/>
<path d="M9.78263 14.1305C9.61561 14.1305 9.44874 14.0672 9.32168 13.9393C9.06693 13.6846 9.06693 13.2715 9.32168 13.0166L12.3391 9.99935L9.32168 6.98193C9.06693 6.72717 9.06693 6.31399 9.32168 6.05923C9.5766 5.80448 9.98962 5.80448 10.2444 6.05923L13.7226 9.5376C13.9773 9.79236 13.9773 10.2054 13.7226 10.4601L10.2444 13.9384C10.1165 14.0672 9.94965 14.1305 9.78263 14.1305Z" fill="#99906E"/>
<path d="M10.4347 19.5651C6.47728 19.5651 2.98346 17.1843 1.53215 13.4989C1.39999 13.165 1.56511 12.7859 1.89995 12.6538C2.23384 12.5233 2.6139 12.6859 2.74606 13.0225C3.99914 16.2042 7.01736 18.2608 10.4347 18.2608C14.9895 18.2608 18.6957 14.5545 18.6957 9.99984C18.6957 5.44513 14.9895 1.73892 10.4347 1.73892C7.01736 1.73892 3.99914 3.79543 2.74606 6.97716C2.61295 7.31376 2.23384 7.47633 1.89995 7.34592C1.56511 7.21377 1.39999 6.83466 1.53215 6.50077C2.98346 2.81542 6.47728 0.43457 10.4347 0.43457C15.7087 0.43457 20 4.72592 20 9.99984C20 15.2737 15.7087 19.5651 10.4347 19.5651Z" fill="#99906E"/>
</g>
<defs>
<clipPath id="clip0">
<rect width="20" height="20" fill="white"/>
</clipPath>
</defs>
</svg>
