<svg width="30" height="30" viewBox="0 0 30 30" fill="none" xmlns="http://www.w3.org/2000/svg">
<path d="M22.7354 22.292C20.8155 22.292 19.2324 23.8414 19.2324 25.7949C19.2324 27.7148 20.7818 29.2979 22.7354 29.2979C24.6552 29.2979 26.2383 27.7485 26.2383 25.7949C26.2046 23.875 24.6552 22.292 22.7354 22.292Z" fill="#2D2A1F"/>
<path d="M28.8992 5.58605C28.8319 5.58605 28.7308 5.55237 28.6298 5.55237H7.41006L7.07324 3.29567C6.87114 1.81366 5.59122 0.702148 4.07553 0.702148H1.34728C0.606277 0.702148 0 1.30843 0 2.04943C0 2.79044 0.606277 3.39672 1.34728 3.39672H4.07553C4.24394 3.39672 4.37867 3.53144 4.41235 3.69985L6.50064 17.9137C6.7701 19.6988 8.31947 21.0461 10.1383 21.0461H24.15C25.9015 21.0461 27.4172 19.7999 27.7877 18.0821L29.977 7.13543C30.1118 6.4281 29.6402 5.72078 28.8992 5.58605Z" fill="#2D2A1F"/>
<path d="M14.1466 25.6265C14.0792 23.774 12.5298 22.292 10.6773 22.292C8.72374 22.393 7.24173 24.0098 7.30909 25.9297C7.37646 27.7822 8.89215 29.2642 10.7447 29.2642H10.812C12.7319 29.1631 14.2476 27.5464 14.1466 25.6265Z" fill="#2D2A1F"/>
</svg>
