<svg width="24" height="24" viewBox="0 0 24 24" fill="none" xmlns="http://www.w3.org/2000/svg">
<path d="M13.5686 13.8289H16.1541C16.7483 13.8289 17.2299 13.3473 17.2299 12.7531C17.2299 12.1589 16.7483 11.6769 16.1541 11.6769H13.5683C13.2255 11.1783 12.6517 10.8498 11.9997 10.8498C11.9889 10.8498 11.98 10.8525 11.9696 10.8533L9.6136 7.53711C9.26926 7.05242 8.59753 6.93866 8.11324 7.283C7.62895 7.62771 7.51555 8.29905 7.85953 8.78338L10.2178 12.1026C10.1434 12.3062 10.0964 12.5233 10.0964 12.7528C10.0964 13.8043 10.9482 14.6557 11.9993 14.6557C12.6517 14.656 13.2255 14.3275 13.5686 13.8289Z" fill="black"/>
<path d="M19.9483 20.5614C21.9245 18.5505 23.1465 15.7954 23.1465 12.753C23.1465 6.59696 18.1561 1.60693 12 1.60693C5.84393 1.60693 0.853516 6.5966 0.853516 12.753C0.853516 15.7958 2.07588 18.5505 4.05204 20.5618L3.04369 21.5698C2.48768 22.1258 2.48768 23.0266 3.04332 23.5826C3.32097 23.8606 3.68574 23.9998 4.04971 23.9998C4.41369 23.9998 4.77813 23.8606 5.05574 23.583L6.31241 22.3267C7.97859 23.3193 9.91932 23.8996 12 23.8996C14.0807 23.8996 16.0214 23.3193 17.6883 22.3264L18.945 23.583C19.223 23.8607 19.587 23.9999 19.951 23.9999C20.315 23.9999 20.6798 23.8607 20.9574 23.5826C21.5131 23.0266 21.5131 22.1259 20.957 21.5698L19.9483 20.5614ZM11.9996 19.3097C11.6036 19.3097 11.2828 19.6313 11.2828 20.0273V20.9936C7.29068 20.6485 4.1041 17.4619 3.75936 13.4702H4.72568C5.12171 13.4702 5.44328 13.1486 5.44328 12.753C5.44328 12.357 5.12167 12.0358 4.72568 12.0358H3.75936C4.1041 8.04412 7.29068 4.85712 11.2828 4.51278V5.47947C11.2828 5.8755 11.6036 6.19631 11.9996 6.19631C12.3956 6.19631 12.7168 5.8755 12.7168 5.47947V4.51278C16.7089 4.85712 19.895 8.04408 20.2402 12.0358H19.2735C18.8775 12.0358 18.5563 12.357 18.5563 12.753C18.5563 13.1486 18.8775 13.4702 19.2735 13.4702H20.2402C19.8954 17.4619 16.7093 20.6485 12.7172 20.9936V20.0277C12.7172 19.6313 12.396 19.3097 11.9996 19.3097Z" fill="black"/>
<path d="M9.14087 1.01334C8.28099 0.379453 7.22058 0 6.07035 0C3.20574 0 0.883301 2.32247 0.883301 5.18703C0.883301 5.89115 1.02482 6.56209 1.27933 7.17401C2.87182 4.12626 5.72331 1.84627 9.14087 1.01334Z" fill="black"/>
<path d="M22.7203 7.17407C22.9747 6.56174 23.1163 5.8908 23.1163 5.18708C23.1167 2.32247 20.7942 0 17.9296 0C16.7786 0 15.719 0.379454 14.8591 1.01415C18.2763 1.84664 21.1278 4.12707 22.7203 7.17407Z" fill="black"/>
</svg>
