<svg width="24" height="24" viewBox="0 0 24 24" fill="none" xmlns="http://www.w3.org/2000/svg">
<path d="M0 16.516C0 16.7621 0.172425 16.9552 0.41848 16.9552H1.08663C1.53557 15.9649 2.55772 15.2156 3.74454 15.2156C4.93142 15.2156 5.95333 15.9649 6.4025 16.9552H15.0872V13.4019H0V16.516Z" fill="black"/>
<path d="M3.74464 16.1548C2.6569 16.1548 1.77515 17.0365 1.77515 18.1243C1.77515 19.212 2.6569 20.0938 3.74464 20.0938C4.83185 20.0925 5.7129 19.2115 5.71413 18.1243C5.71413 17.0366 4.83237 16.1548 3.74464 16.1548Z" fill="black"/>
<path d="M23.7435 11.9543L21.8678 11.1299H16.0193V16.9551H17.1545C17.6037 15.9648 18.6256 15.2154 19.8124 15.2154C20.9992 15.2154 22.0214 15.9648 22.4703 16.9551H23.5813C23.8274 16.9551 23.9998 16.762 23.9998 16.5159V12.378C24.006 12.1985 23.9054 12.0322 23.7435 11.9543Z" fill="black"/>
<path d="M19.9393 7.77147C19.7053 7.32265 19.2379 7.04438 18.7318 7.05242H16.0193V10.198H21.1987L19.9393 7.77147Z" fill="black"/>
<path d="M13.7495 3.90674H1.3307C0.581643 3.90674 0 4.52339 0 5.27245V12.4697H15.0872V5.27245C15.0872 5.27035 15.0873 5.26826 15.0873 5.26616C15.0933 4.52141 14.4943 3.91274 13.7495 3.90674Z" fill="black"/>
<path d="M19.8122 16.1548C18.7245 16.1548 17.8427 17.0366 17.8428 18.1243C17.8428 19.2121 18.7246 20.0938 19.8123 20.0938C20.8995 20.0925 21.7805 19.2115 21.7818 18.1243V18.1242C21.7817 17.0365 20.8999 16.1548 19.8122 16.1548Z" fill="black"/>
</svg>
