<svg width="70" height="70" viewBox="0 0 70 70" fill="none" xmlns="http://www.w3.org/2000/svg">
<g clip-path="url(#clip0)">
<path d="M67.2286 15.4453L35.4459 0.101924C35.1641 -0.0339746 34.836 -0.0339746 34.5543 0.101924L2.77145 15.4453C2.41707 15.6164 2.19189 15.9752 2.19189 16.3687V53.6313C2.19189 54.0247 2.41707 54.3836 2.77145 54.5547L34.5542 69.8981C34.695 69.966 34.8476 70.0001 35 70.0001C35.1525 70.0001 35.3049 69.966 35.4459 69.8981L67.2286 54.5547C67.583 54.3836 67.8081 54.0247 67.8081 53.6313V16.3689C67.8081 15.9751 67.5828 15.6165 67.2286 15.4453ZM35 2.16405L64.4242 16.3687L55.8947 20.4864C55.8407 20.4453 55.7837 20.4073 55.7211 20.377L26.4968 6.26903L35 2.16405ZM24.1811 7.42841L53.5624 21.6124L47.5448 24.5176L18.1755 10.3393L24.1811 7.42841ZM54.2499 23.5577V34.2964L48.629 37.01V26.2713L54.2499 23.5577ZM65.7573 52.9879L36.0254 67.3409V32.3557L43.1174 28.9319C43.6274 28.6857 43.8412 28.0728 43.595 27.5627C43.3487 27.0529 42.7358 26.8388 42.2257 27.0851L35 30.5735L32.1568 29.2009C31.6467 28.9544 31.0338 29.1685 30.7876 29.6784C30.5413 30.1884 30.7552 30.8014 31.2651 31.0477L33.9746 32.3557V67.3409L4.24268 52.9876V18.0024L26.8833 28.9324C27.027 29.0018 27.1789 29.0346 27.3283 29.0346C27.7095 29.0346 28.0756 28.8211 28.2524 28.4548C28.4986 27.9448 28.2848 27.3318 27.7748 27.0856L5.57582 16.3687L15.762 11.4512L46.564 26.3212C46.5685 26.3274 46.5735 26.3331 46.5782 26.3392V38.6438C46.5782 38.9966 46.7596 39.3246 47.0585 39.5123C47.2244 39.6165 47.4138 39.6691 47.6037 39.6691C47.7557 39.6691 47.9082 39.6354 48.0494 39.5672L55.7211 35.8636C56.0755 35.6925 56.3007 35.3338 56.3007 34.9402V22.5678L65.7573 18.0025V52.9879Z" fill="#2D2A1F"/>
<path d="M12.7047 49.0107L8.04056 46.7591C7.53033 46.5126 6.91755 46.7267 6.67132 47.2366C6.42509 47.7466 6.63892 48.3597 7.14888 48.6059L11.813 50.8575C11.9567 50.9269 12.1086 50.9598 12.2581 50.9598C12.6392 50.9598 13.0054 50.7462 13.1821 50.3799C13.4285 49.8698 13.2147 49.2571 12.7047 49.0107Z" fill="#2D2A1F"/>
<path d="M16.9974 46.2165L8.04707 41.8957C7.53697 41.6495 6.92406 41.8633 6.67783 42.3734C6.43173 42.8833 6.64556 43.4964 7.15552 43.7426L16.1058 48.0635C16.2495 48.1328 16.4014 48.1657 16.5508 48.1657C16.932 48.1657 17.2981 47.9522 17.4749 47.5859C17.7212 47.0757 17.5073 46.4626 16.9974 46.2165Z" fill="#2D2A1F"/>
</g>
<defs>
<clipPath id="clip0">
<rect width="70" height="70" fill="white"/>
</clipPath>
</defs>
</svg>
